<svg width="52" height="52" viewBox="0 0 52 52" fill="none" xmlns="http://www.w3.org/2000/svg">
<g id="Group 11">
<circle id="Ellipse 9" cx="26" cy="26" r="26" fill="#FEE4D9"/>
<path id="Vector" d="M29.8151 42C29.2324 41.8193 28.8208 41.4098 28.4035 40.997C23.829 36.4651 19.2511 31.9356 14.6675 27.4118C14.1047 26.8568 13.8419 26.2257 14.0989 25.4663C14.1948 25.1827 14.3849 24.9031 14.6006 24.6897C19.3429 19.9845 24.0918 15.2866 28.8456 10.592C29.644 9.80321 30.6779 9.80648 31.4837 10.579C31.8614 10.9411 32.2441 11.3016 32.5846 11.6972C33.1582 12.3643 33.1292 13.2888 32.5507 13.955C32.4614 14.0572 32.3647 14.1537 32.268 14.2493C28.4043 18.0709 24.5414 21.8933 20.676 25.7132C20.5867 25.8015 20.4818 25.8734 20.314 26.0925C20.4256 26.1522 20.5586 26.1906 20.6446 26.2756C24.548 30.1298 28.4489 33.989 32.349 37.8482C33.0763 38.5684 33.2218 39.5607 32.6226 40.2343C32.0127 40.9218 31.4391 41.6755 30.5101 42L29.8151 42Z" fill="#EA5E24"/>
</g>
</svg>
