<svg width="337" height="22" viewBox="0 0 337 22" fill="none" xmlns="http://www.w3.org/2000/svg">
<path d="M151.819 15.4402L153.489 16.3275C151.552 17.9177 150.086 17.419 151.672 18.6862C151.819 15.4402 158.069 18.1875 158.191 14.9408L159.295 15.5958C158.984 15.5863 158.931 15.7759 158.621 15.7426C160.774 17.242 160.128 13.3506 162.864 13.7445C163.813 13.9646 164.493 14.4154 163.859 14.8263L165.965 13.9582C166.585 14.001 166.448 14.5704 165.828 14.5277L169.041 14.1713L169.038 14.2668C169.46 13.7538 170.489 12.9247 171.002 12.5818C171.825 13.0131 170.609 12.9283 170.811 13.3408L172.581 12.5103C173.321 13.3215 171.861 14.1853 170.621 14.0998C172.364 17.2836 172.081 13.236 175.73 15.0677L174.043 15.5183C175.183 17.3454 176.471 16.6437 178.397 17.7538C177.937 17.1662 174.515 14.9351 176.429 14.0851C176.972 14.3167 177.71 14.4108 178.733 13.7489C178.77 14.8972 179.783 14.5934 181.052 14.5125L181.006 16.0406C182.358 15.5798 182.239 14.7875 183.049 14.0951C184.599 14.2139 184.945 15.3956 185.321 16.3869C187.801 16.5818 183.586 14.5178 186.488 14.1758C188.551 14.7165 189.981 14.0668 192.423 13.1134C193.866 13.6114 192.18 14.062 192.716 14.4846L193.973 13.2322C194.284 13.2416 194.2 13.6215 194.147 13.8111C195.214 13.3177 194.193 12.2829 195.88 11.8323C196.314 10.1247 199.368 14.2327 201.434 12.3118C201.947 12.7337 201.19 13.2604 201.388 13.84C204.223 12.5639 203.83 12.9104 206.153 11.1885L208.179 12.1583C206.683 11.0374 208.565 9.66059 210.201 8.51533C209.668 7.97333 209.229 7.48199 208.925 7.25765L211.556 6.40553C211.883 6.65447 211.628 7.17252 211.202 7.82876C211.373 7.69057 211.544 7.57627 211.691 7.46123C212.63 8.01557 212.149 8.90914 211.501 9.77374C211.176 9.47705 210.851 9.15647 210.55 8.83663C209.9 9.77287 209.319 10.8068 209.459 11.6953C209.632 11.5094 209.948 11.3517 210.309 11.2671C210.134 11.5246 210.032 11.7366 210.122 11.9067C210.212 12.0767 210.486 11.7266 210.904 11.333L211.522 13.0247L211.662 12.3359L215.12 13.3731C217.563 11.631 219.697 9.06685 223.59 8.34871C222.62 9.6098 223.384 10.3978 223.363 11.879C222.288 10.3167 220.331 12.5755 218.308 12.275C219.355 12.4263 219.143 13.1369 218.872 13.3915L222.478 11.9238C222.393 13.1401 223.263 12.8319 224.204 13.3146C223.464 10.926 226.881 11.723 228.362 10.9793C228.457 11.7948 228.121 12.5972 226.31 12.4226C228.287 14.2274 228.858 9.60821 230.795 11.125C230.365 11.1358 230.129 11.033 229.949 11.4339C230.975 10.7241 233.467 11.2779 232.896 11.9775L232.467 11.9645C235.373 12.2679 241.309 11.9942 241.753 9.95238C241.793 10.2165 241.368 12.4023 241.188 12.8032L246.368 5.95799C245.908 7.7126 247.67 11.853 245.25 12.8549C245.935 13.1148 246.787 13.3797 248.263 12.7792C247.793 12.5259 247.097 10.2582 247.724 10.0861C249.481 12.0276 248.959 11.1274 251.131 12.7947C250.425 12.4148 251.225 9.6906 252.346 9.77247C252.167 10.1733 252.431 12.4757 252.017 12.7499L254.798 10.086C254.09 10.5664 254.658 12.3522 255.279 13.1359C254.985 12.6011 257.691 13.2092 258.416 12.9444L257.24 12.3112C260.382 12.7413 260.365 8.55834 263.492 8.70118C263.116 9.26336 262.528 12.1134 264.119 12.4486C264.854 11.0847 267.379 5.85575 270.159 4.79308L270.685 5.57386L272.816 4.68262C271.462 6.74467 267.746 11.077 265.711 12.7599C266.887 13.3931 266.041 13.6781 267.787 13.6356C268.41 14.3715 266.821 14.7534 266.295 14.7852L270.39 15.2921C270.224 13.6857 273.545 13.6911 273.394 12.372L268.923 14.0047C268.757 12.3984 271.524 9.4472 274.429 9.77452C275.151 10.4178 273.841 12.6246 273.896 13.1521C274.271 12.6138 276.652 12.1365 276.927 12.5272L275.682 13.3737C277.288 13.9961 278.351 11.2799 280.263 12.8437C280.929 12.9595 282.231 14.935 282.356 13.9828C281.289 12.134 281.126 6.46482 281.885 5.10169C282.12 5.22834 285.391 6.90515 286.152 7.81257C287.231 9.25547 284.447 11.2262 285.365 12.473C285.402 12.0439 286.04 11.5136 286.284 11.3298C286.99 11.7098 285.98 12.6829 287.515 12.5144C287.803 10.898 290.616 12.7043 288.249 11.1506C289.745 10.6942 289.84 11.5096 291.586 11.4671C291.045 10.3991 293.223 7.90802 294.743 7.45231C294.659 7.85605 294.977 8.4154 295.137 8.65926C298.214 8.84839 299.839 9.63868 302.705 9.7019C302.956 10.0919 304.326 10.6116 303.732 11.2866C304.147 11.0124 304.546 10.4748 305.431 10.4539C307.108 11.8911 303.465 10.6332 304.728 12.3446C304.852 11.3924 307.037 11.0764 308.297 10.5172C307.935 9.04828 305.391 10.166 304.131 10.749C304.168 8.74258 306.406 6.65964 309.42 5.79526C311.824 5.34252 310.431 7.11658 310.846 6.84239C315.302 7.28852 314.727 3.39929 318.408 4.94517C319.85 6.25569 318.402 7.50226 318.708 8.44365C316.759 8.8863 315.747 7.56497 314.432 7.59668L316.038 8.24298C315.404 8.65391 314.104 8.949 313.423 8.56979C314.629 9.75366 320.963 8.9424 324.394 10.0983C325.028 9.68733 326.092 9.26559 325.606 8.74892L324.502 8.90655C323.53 7.84933 326.599 7.53631 325.228 7.01666C326.707 6.32073 328.389 5.24855 330.425 5.88403L330.763 7.35219C330.728 6.92094 329.428 6.45122 328.842 6.8636C329.721 6.24503 331.957 8.94198 332.947 7.06007L331.521 6.01293C333.024 5.31772 334.885 3.82083 336.686 4.32967C335.895 2.84773 336.251 4.48375 335.014 2.74924C336.072 4.88459 330.336 2.51148 332.084 4.78726C330.806 2.78865 329.793 3.88114 328.101 2.15672C328.134 2.63573 328.693 3.10682 327.172 2.82159C327.096 2.96268 326.924 3.12474 326.825 3.24123C326.777 3.23978 326.753 3.23905 326.731 3.19057L326.825 3.24123C326.825 3.24123 326.75 3.33456 326.849 3.24196C327.2 3.46774 327.504 3.71595 327.614 4.00611C326.817 5.08126 324.382 4.98336 323.553 5.53174C322.653 5.26539 323.951 4.99417 323.466 4.45362L322.222 5.2762C322.135 4.19807 319.84 3.43522 322.009 2.85584L320.075 2.79706C318.948 2.1414 317.402 1.87932 316.409 2.30324C315.508 2.06076 314.08 3.45133 314.894 2.61568L311.841 3.21596L311.849 2.95331C308.82 2.74174 305.632 4.60463 302.252 2.58991C301.24 2.84596 300.203 3.14903 298.517 2.81097L298.211 1.86958C296.911 2.16468 294.345 0.891682 293.766 1.85397C292.409 -0.672853 287.499 1.23329 285.219 0.757696L285.111 1.97328C283.536 1.87762 282.044 2.21467 280.095 2.65731L280.205 3.73616C278.53 4.59343 275.905 2.91234 273.249 2.99892C273.429 2.59808 274.094 2.71391 274.588 2.96793C271.437 0.50606 267.892 4.67638 265.031 2.89252C264.302 3.27666 263.804 3.14203 263.287 2.86341C263.359 2.86559 263.407 2.84316 263.456 2.79686C263.385 2.79468 263.265 2.79105 263.17 2.78815C262.864 2.61157 262.537 2.38651 262.184 2.20848C262.486 2.48057 262.767 2.6803 263.027 2.7838C262.476 2.81486 261.636 2.93272 260.815 3.19458L260.468 2.03684C260.468 2.03684 260.349 2.03321 260.276 2.07878C259.476 1.64819 259.638 2.6091 260.042 3.48176C259.63 3.66044 259.241 3.88761 258.946 4.16543C258.309 2.3058 256.8 4.76941 255.904 2.80629C255.349 3.7693 251.771 3.51717 251.328 5.53516C251.312 5.27178 251.053 5.14441 251.507 5.13432C250.606 4.89184 249.681 4.67251 248.852 5.2209L248.466 3.7513L246.47 5.72211C245.255 4.82478 244.769 4.3081 245.95 3.19681C243.053 4.92515 243.587 3.86589 241.121 5.58341L241.246 4.63121C240.36 4.67599 238.959 5.94789 238.409 5.16639C236.432 3.3855 228.641 4.94117 223.552 3.30471C224.567 6.08403 221.176 2.0614 220.991 4.23064C220.7 3.57651 219.97 3.21972 220.801 2.62358C218.222 3.31001 216.912 1.62108 215.135 3.45516C214.82 2.8003 215.69 2.49214 215.415 2.10139C215.22 2.23885 214.609 2.67438 214.334 2.28363C214.059 1.89287 214.71 1.72145 215.125 1.42338C212.468 1.55771 212.239 3.60611 212.061 5.5127C210.702 4.63488 210.052 4.75855 209.082 6.01964C208.599 5.40746 207.83 4.76269 209.462 4.52551C208.532 4.44945 203.8 3.6842 203.729 5.21164C203.43 4.82017 202.441 5.1247 202.197 5.28458C200.12 5.22144 199.933 5.07237 197.897 5.24945L198.463 5.48177C197.69 7.32245 196.777 5.90852 195.144 6.16957L195.198 5.98C191.412 4.71775 193.576 6.64771 189.844 5.19588L190.072 6.32612C189.782 8.80286 186.769 4.93511 184.612 5.92114L185.405 6.56663C184.255 7.43987 182.039 3.28566 180.853 2.98672C180.596 2.78771 181.246 2.64016 181.61 2.46003C178.473 1.07411 181.229 3.97804 178.947 4.36277C178.493 3.56029 179.44 2.29847 177.89 2.17966C177.097 1.53417 173.434 4.88829 171.281 3.38886C171.764 4.00104 172.248 4.61322 171.181 5.1066C169.548 5.36765 166.684 2.86673 165.261 4.87885C165.051 4.70517 164.96 4.559 164.941 4.39113C163.706 4.92718 160.873 5.34297 160.146 6.44417C158.88 2.51001 152.41 8.57508 152.329 4.93987L148.472 5.25282L148.555 4.87295C146.075 4.70196 145.234 5.63239 144.394 6.51506C143.828 6.28275 144.221 5.93619 144.25 5.7459C140.612 5.13342 140.272 5.31428 137.298 7.23146L136.952 6.04984C136.165 6.76682 131.673 4.3837 128.186 5.87899C128.214 5.73645 128.268 5.523 128.561 5.34069C124.643 6.84679 118.898 2.41802 117.618 6.80055L115.048 7.98914C118.461 8.16456 114.632 9.88847 116.047 10.529C114.723 10.8472 112.545 9.37092 114.179 9.08599L114.435 9.28499C114.935 7.0058 110.176 8.67752 110.198 7.14863C103.518 7.54307 96.9514 6.57867 90.6824 6.81831L91.4912 8.51588L89.3161 8.52146C88.7301 8.14515 88.4719 7.20522 90.05 7.18148C89.1709 6.22267 87.487 8.15517 87.4515 8.53649C84.3612 7.98846 88.5428 6.44258 87.6109 6.43815L86.3381 6.63846L86.6427 6.83892C85.6398 7.59713 85.5927 8.36049 83.728 8.37551C82.5183 8.07584 83.0668 7.32772 82.59 7.28933C82.5936 7.16994 82.4279 7.1171 81.8736 7.26755L79.1255 7.25572L80.3041 8.58213C79.1101 9.33453 77.721 8.64701 79.0616 10.1456C77.0771 7.81485 68.7703 9.83283 67.5714 9.175C65.9129 10.2718 64.2371 10.3642 62.1576 10.3727C62.6995 10.6282 63.0829 12.1694 61.2935 12.0672C61.7503 8.83076 57.9116 10.889 56.3301 8.66601C57.72 10.1183 51.2426 9.34786 53.403 11.3972C51.8785 11.2314 53.2483 10.1975 52.0501 9.5158C48.5646 10.9633 44.1242 9.22708 39.7292 9.92998C39.6922 10.3591 40.4628 10.9561 39.5583 11.6217L37.0838 9.68228C36.2155 9.94268 36.4353 12.1481 34.7553 10.8065C35.0078 11.1488 35.3746 11.6618 34.7957 11.8354C25.998 10.3491 17.2605 14.744 8.20244 11.6007C9.44691 12.3316 8.67847 12.4516 7.76676 12.5673C8.38395 12.7056 7.83106 13.597 8.00539 14.1519L4.22053 12.8658C3.66902 14.4981 0.288621 13.2721 0.0265454 14.8176L1.16113 14.4458C-0.234804 16.3393 3.62743 18.2252 3.58163 20.5182C5.15269 18.3672 8.37647 23.1734 10.9809 20.05C11.6371 20.4763 10.5033 20.8242 10.8701 21.3372C11.5228 20.3055 12.3672 20.0444 14.0068 20.3571L13.8317 20.6147C18.3425 20.0348 20.3503 20.8128 25.4558 21.1114L24.9877 19.9978C26.0846 20.0789 26.3371 20.4212 26.8798 20.6528C28.0102 18.8469 23.8169 20.7748 24.8091 18.7974C26.4152 20.9972 32.5195 18.3147 33.661 20.8589C35.3368 20.7665 33.0787 19.5745 34.7545 19.4821L35.2595 20.1666L35.6228 19.2217C36.7436 19.3035 37.3397 20.1342 37.441 20.7348C37.1798 20.6791 36.6935 20.9511 36.4048 21.014C37.888 21.7522 40.4127 20.4666 40.9076 20.6968L39.2687 20.3602C43.8157 19.3751 49.4631 19.9292 53.7924 18.2444L53.4256 17.7313C56.736 16.5414 56.1614 18.1491 59.8625 17.4729L59.7387 17.6125C60.4493 17.0366 61.4153 16.7075 62.4428 16.7148C61.5375 17.4043 64.2733 17.8221 63.0794 18.5745C66.6792 17.2977 64.8529 17.6246 67.1403 15.4953L67.7596 16.3506C68.5505 15.4904 68.5868 15.0852 70.4377 14.7352C68.9543 15.5744 71.6893 16.016 70.0547 17.1135C74.0421 18.8121 75.7161 14.8478 77.6651 17.5599C79.3195 15.029 74.2117 16.3795 75.1856 15.7877C74.3008 15.0199 76.5584 13.8696 77.795 14.0745C79.0381 14.0645 80.0689 17.1072 83.2063 16.8919C82.8959 16.8824 82.8901 17.0734 82.5789 17.0879C83.7807 17.6502 84.8308 16.1286 86.3082 17.0578C87.0478 15.5268 88.1728 17.0428 88.3025 15.1348L85.4646 15.7177C87.0594 15.1448 88.4916 12.8462 91.2114 13.7892C91.0319 14.1901 90.2511 14.716 89.7157 15.0343C90.5361 15.5612 91.2113 14.5779 92.0557 15.1055C91.926 17.0135 88.5963 15.6934 86.9247 17.22C87.8102 17.9639 90.1505 15.6689 89.3695 17.7723C90.5022 15.106 92.4715 17.9383 94.4948 15.8488L94.4122 16.9935C94.7291 16.788 95.4151 16.2353 96.0366 16.2303L94.9866 17.7518C96.6285 16.4155 98.3526 18.6667 99.9532 17.9028C96.5061 18.0848 99.1096 16.5627 97.6264 15.8245C101.813 14.1115 100.216 18.6756 104.947 17.9351C104.32 18.1311 102.503 17.3589 103.476 16.791C104.402 16.9864 105.61 17.3577 106.19 17.9251C109.333 17.5426 105.651 16.7854 106.965 16.0366C108.096 17.3616 108.489 15.4138 109.843 14.9052L109.904 16.0543C113.519 16.6421 110.743 13.6181 114.018 14.363L112.725 16.0205L114.389 15.5453L114.085 16.8745C115.886 15.8298 116.453 16.0382 118.26 16.3322C117.807 15.5297 118.42 14.2338 120.001 14.1146C121.105 14.7457 119.441 15.2448 121.695 14.9787C121.218 15.729 120.689 16.645 119.668 15.6341C119.584 16.0139 119.191 16.3844 119.108 16.7642C120.304 17.4937 122.046 16.8057 122.86 16.7588C122.55 16.7493 122.169 16.69 121.959 16.5163L125.166 14.7974C125.703 15.22 125.31 15.5666 124.916 15.937C125.566 15.7895 126.013 15.2533 126.973 15.1152C126.753 16.0645 126.843 17.0233 125.49 17.5079L128.56 16.3585C128.787 16.7478 130.201 17.4121 129.808 17.7826C131.561 18.2661 133.978 15.8062 136.301 16.4503C136.402 16.2622 136.647 16.0785 137.13 15.9258C139.3 16.0635 141.227 17.1498 143.731 15.768L145.235 17.3911C147.208 16.9492 143.218 15.3461 146.515 14.5859C148.852 13.9639 147.429 15.976 148.275 16.4319C149.425 15.5587 151.415 13.7789 153.598 15.088C152.895 15.4251 152.328 15.1928 151.655 15.3397L151.819 15.4402ZM176.43 14.0374C175.969 14.2862 175.013 15.0459 174.651 14.3896C175.169 13.0669 175.605 13.6777 176.43 14.0374ZM213.864 10.6582C213.518 11.0539 212.95 10.8694 212.342 10.4207C212.799 10.3151 213.3 10.3542 213.864 10.6582ZM318.552 3.37215C318.552 3.37215 318.527 3.3953 318.502 3.41845C317.441 2.956 317.818 3.13475 318.552 3.37215ZM320.758 3.9172C320.978 3.75659 320.982 3.61333 320.892 3.44328C320.74 3.72546 320.238 3.73409 319.667 3.64504C319.824 3.96053 320.105 4.16026 320.758 3.9172ZM82.4568 7.73937L82.9025 8.01582C81.935 8.39271 82.2071 8.09028 82.4568 7.73937Z" fill="#EC703D"/>
</svg>
